<?xml version="1.0" encoding="UTF-8" standalone="no"?><svg xmlns="http://www.w3.org/2000/svg" xmlns:xlink="http://www.w3.org/1999/xlink" contentScriptType="application/ecmascript" contentStyleType="text/css" height="973px" preserveAspectRatio="none" style="width:761px;height:973px;" version="1.1" viewBox="0 0 761 973" width="761px" zoomAndPan="magnify"><defs><filter height="300%" id="fen9m7c0xhjip" width="300%" x="-1" y="-1"><feGaussianBlur result="blurOut" stdDeviation="2.0"/><feColorMatrix in="blurOut" result="blurOut2" type="matrix" values="0 0 0 0 0 0 0 0 0 0 0 0 0 0 0 0 0 0 .4 0"/><feOffset dx="4.0" dy="4.0" in="blurOut2" result="blurOut3"/><feBlend in="SourceGraphic" in2="blurOut3" mode="normal"/></filter></defs><g><rect fill="#FFFFFF" filter="url(#fen9m7c0xhjip)" height="654.5234" style="stroke: #A80036; stroke-width: 1.0;" width="10" x="311" y="184.4297"/><rect fill="#FFFFFF" filter="url(#fen9m7c0xhjip)" height="29.1328" style="stroke: #A80036; stroke-width: 1.0;" width="10" x="316" y="357.0938"/><rect fill="#FFFFFF" filter="url(#fen9m7c0xhjip)" height="590.2578" style="stroke: #A80036; stroke-width: 1.0;" width="10" x="447.5" y="213.5625"/><rect fill="#FFFFFF" filter="url(#fen9m7c0xhjip)" height="590.2578" style="stroke: #A80036; stroke-width: 1.0;" width="10" x="631" y="213.5625"/><rect fill="#FFFFFF" filter="url(#fen9m7c0xhjip)" height="29.1328" style="stroke: #A80036; stroke-width: 1.0;" width="10" x="636" y="588.0234"/><line style="stroke: #A80036; stroke-width: 1.0; stroke-dasharray: 5.0,5.0;" x1="63" x2="63" y1="86.2969" y2="889.0859"/><line style="stroke: #A80036; stroke-width: 1.0; stroke-dasharray: 5.0,5.0;" x1="315.5" x2="315.5" y1="86.2969" y2="889.0859"/><line style="stroke: #A80036; stroke-width: 1.0; stroke-dasharray: 5.0,5.0;" x1="452.5" x2="452.5" y1="86.2969" y2="889.0859"/><line style="stroke: #A80036; stroke-width: 1.0; stroke-dasharray: 5.0,5.0;" x1="635.5" x2="635.5" y1="86.2969" y2="889.0859"/><text fill="#000000" font-family="sans-serif" font-size="14" lengthAdjust="spacingAndGlyphs" textLength="104" x="8" y="82.9951">Пользователь</text><ellipse cx="63" cy="13" fill="#FEFECE" filter="url(#fen9m7c0xhjip)" rx="8" ry="8" style="stroke: #A80036; stroke-width: 2.0;"/><path d="M63,21 L63,48 M50,29 L76,29 M63,48 L50,63 M63,48 L76,63 " fill="#FEFECE" filter="url(#fen9m7c0xhjip)" style="stroke: #A80036; stroke-width: 2.0;"/><text fill="#000000" font-family="sans-serif" font-size="14" lengthAdjust="spacingAndGlyphs" textLength="104" x="8" y="901.0811">Пользователь</text><ellipse cx="63" cy="914.3828" fill="#FEFECE" filter="url(#fen9m7c0xhjip)" rx="8" ry="8" style="stroke: #A80036; stroke-width: 2.0;"/><path d="M63,922.3828 L63,949.3828 M50,930.3828 L76,930.3828 M63,949.3828 L50,964.3828 M63,949.3828 L76,964.3828 " fill="#FEFECE" filter="url(#fen9m7c0xhjip)" style="stroke: #A80036; stroke-width: 2.0;"/><rect fill="#FEFECE" filter="url(#fen9m7c0xhjip)" height="30.2969" style="stroke: #A80036; stroke-width: 1.5;" width="133" x="247.5" y="51"/><text fill="#000000" font-family="sans-serif" font-size="14" lengthAdjust="spacingAndGlyphs" textLength="119" x="254.5" y="70.9951">СиловойМодуль</text><rect fill="#FEFECE" filter="url(#fen9m7c0xhjip)" height="30.2969" style="stroke: #A80036; stroke-width: 1.5;" width="133" x="247.5" y="888.0859"/><text fill="#000000" font-family="sans-serif" font-size="14" lengthAdjust="spacingAndGlyphs" textLength="119" x="254.5" y="908.0811">СиловойМодуль</text><rect fill="#FEFECE" filter="url(#fen9m7c0xhjip)" height="30.2969" style="stroke: #A80036; stroke-width: 1.5;" width="112" x="394.5" y="51"/><text fill="#000000" font-family="sans-serif" font-size="14" lengthAdjust="spacingAndGlyphs" textLength="98" x="401.5" y="70.9951">РелеПитания</text><rect fill="#FEFECE" filter="url(#fen9m7c0xhjip)" height="30.2969" style="stroke: #A80036; stroke-width: 1.5;" width="112" x="394.5" y="888.0859"/><text fill="#000000" font-family="sans-serif" font-size="14" lengthAdjust="spacingAndGlyphs" textLength="98" x="401.5" y="908.0811">РелеПитания</text><rect fill="#FEFECE" filter="url(#fen9m7c0xhjip)" height="30.2969" style="stroke: #A80036; stroke-width: 1.5;" width="227" x="520.5" y="51"/><text fill="#000000" font-family="sans-serif" font-size="14" lengthAdjust="spacingAndGlyphs" textLength="213" x="527.5" y="70.9951">МодульСетевогоУправления</text><rect fill="#FEFECE" filter="url(#fen9m7c0xhjip)" height="30.2969" style="stroke: #A80036; stroke-width: 1.5;" width="227" x="520.5" y="888.0859"/><text fill="#000000" font-family="sans-serif" font-size="14" lengthAdjust="spacingAndGlyphs" textLength="213" x="527.5" y="908.0811">МодульСетевогоУправления</text><rect fill="#FFFFFF" filter="url(#fen9m7c0xhjip)" height="654.5234" style="stroke: #A80036; stroke-width: 1.0;" width="10" x="311" y="184.4297"/><rect fill="#FFFFFF" filter="url(#fen9m7c0xhjip)" height="29.1328" style="stroke: #A80036; stroke-width: 1.0;" width="10" x="316" y="357.0938"/><rect fill="#FFFFFF" filter="url(#fen9m7c0xhjip)" height="590.2578" style="stroke: #A80036; stroke-width: 1.0;" width="10" x="447.5" y="213.5625"/><rect fill="#FFFFFF" filter="url(#fen9m7c0xhjip)" height="590.2578" style="stroke: #A80036; stroke-width: 1.0;" width="10" x="631" y="213.5625"/><rect fill="#FFFFFF" filter="url(#fen9m7c0xhjip)" height="29.1328" style="stroke: #A80036; stroke-width: 1.0;" width="10" x="636" y="588.0234"/><line style="stroke: #FF0000; stroke-width: 1.0;" x1="316" x2="358" y1="142.4297" y2="142.4297"/><line style="stroke: #FF0000; stroke-width: 1.0;" x1="358" x2="358" y1="142.4297" y2="155.4297"/><line style="stroke: #FF0000; stroke-width: 1.0;" x1="317" x2="358" y1="155.4297" y2="155.4297"/><polygon fill="#FF0000" points="327,151.4297,317,155.4297,327,159.4297,323,155.4297" style="stroke: #FF0000; stroke-width: 1.0;"/><text fill="#000000" font-family="sans-serif" font-size="13" lengthAdjust="spacingAndGlyphs" textLength="71" x="323" y="137.3638">Выключен</text><polygon fill="#A80036" points="299,180.4297,309,184.4297,299,188.4297,303,184.4297" style="stroke: #A80036; stroke-width: 1.0;"/><line style="stroke: #A80036; stroke-width: 1.0;" x1="63" x2="305" y1="184.4297" y2="184.4297"/><text fill="#000000" font-family="sans-serif" font-size="13" lengthAdjust="spacingAndGlyphs" textLength="116" x="70" y="179.4966">Нажатие кнопки</text><polygon fill="#90EE90" points="435.5,209.5625,445.5,213.5625,435.5,217.5625,439.5,213.5625" style="stroke: #90EE90; stroke-width: 1.0;"/><line style="stroke: #90EE90; stroke-width: 1.0;" x1="321" x2="441.5" y1="213.5625" y2="213.5625"/><text fill="#000000" font-family="sans-serif" font-size="13" lengthAdjust="spacingAndGlyphs" textLength="77" x="328" y="208.6294">Включение</text><polygon fill="#A80036" points="74,238.6953,64,242.6953,74,246.6953,70,242.6953" style="stroke: #A80036; stroke-width: 1.0;"/><line style="stroke: #A80036; stroke-width: 1.0;" x1="68" x2="310" y1="242.6953" y2="242.6953"/><text fill="#000000" font-family="sans-serif" font-size="13" lengthAdjust="spacingAndGlyphs" textLength="211" x="80" y="237.7622">Светодиод на кнопке моргает</text><line style="stroke: #90EE90; stroke-width: 1.0;" x1="321" x2="363" y1="271.9609" y2="271.9609"/><line style="stroke: #90EE90; stroke-width: 1.0;" x1="363" x2="363" y1="271.9609" y2="284.9609"/><line style="stroke: #90EE90; stroke-width: 1.0;" x1="322" x2="363" y1="284.9609" y2="284.9609"/><polygon fill="#90EE90" points="332,280.9609,322,284.9609,332,288.9609,328,284.9609" style="stroke: #90EE90; stroke-width: 1.0;"/><text fill="#000000" font-family="sans-serif" font-size="13" lengthAdjust="spacingAndGlyphs" textLength="77" x="328" y="266.895">Включение</text><rect fill="#EEEEEE" filter="url(#fen9m7c0xhjip)" height="3" style="stroke: #EEEEEE; stroke-width: 1.0;" width="753.5" x="3" y="313.5273"/><line style="stroke: #000000; stroke-width: 1.0;" x1="3" x2="756.5" y1="313.5273" y2="313.5273"/><line style="stroke: #000000; stroke-width: 1.0;" x1="3" x2="756.5" y1="316.5273" y2="316.5273"/><rect fill="#EEEEEE" filter="url(#fen9m7c0xhjip)" height="23.1328" style="stroke: #000000; stroke-width: 2.0;" width="344" x="207.75" y="302.9609"/><text fill="#000000" font-family="sans-serif" font-size="13" font-weight="bold" lengthAdjust="spacingAndGlyphs" textLength="325" x="213.75" y="319.0278">Модули производят начальную настройку</text><polygon fill="#0000FF" points="337,353.0938,327,357.0938,337,361.0938,333,357.0938" style="stroke: #0000FF; stroke-width: 1.0;"/><line style="stroke: #0000FF; stroke-width: 1.0;" x1="331" x2="630" y1="357.0938" y2="357.0938"/><text fill="#000000" font-family="sans-serif" font-size="13" lengthAdjust="spacingAndGlyphs" textLength="267" x="343" y="352.1606">{"action": "found_module", "meta":{...}}</text><polygon fill="#008000" points="619,382.2266,629,386.2266,619,390.2266,623,386.2266" style="stroke: #008000; stroke-width: 1.0;"/><line style="stroke: #008000; stroke-width: 1.0;" x1="321" x2="625" y1="386.2266" y2="386.2266"/><text fill="#000000" font-family="sans-serif" font-size="13" lengthAdjust="spacingAndGlyphs" textLength="104" x="328" y="381.2935">{"status": "ok"}</text><polygon fill="#A80036" points="74,411.3594,64,415.3594,74,419.3594,70,415.3594" style="stroke: #A80036; stroke-width: 1.0;"/><line style="stroke: #A80036; stroke-width: 1.0;" x1="68" x2="310" y1="415.3594" y2="415.3594"/><text fill="#000000" font-family="sans-serif" font-size="13" lengthAdjust="spacingAndGlyphs" textLength="214" x="80" y="410.4263">Светодиод на кнопке включён</text><line style="stroke: #90EE90; stroke-width: 1.0;" x1="321" x2="363" y1="444.625" y2="444.625"/><line style="stroke: #90EE90; stroke-width: 1.0;" x1="363" x2="363" y1="444.625" y2="457.625"/><line style="stroke: #90EE90; stroke-width: 1.0;" x1="322" x2="363" y1="457.625" y2="457.625"/><polygon fill="#90EE90" points="332,453.625,322,457.625,332,461.625,328,457.625" style="stroke: #90EE90; stroke-width: 1.0;"/><text fill="#000000" font-family="sans-serif" font-size="13" lengthAdjust="spacingAndGlyphs" textLength="61" x="328" y="439.5591">Включён</text><rect fill="#EEEEEE" filter="url(#fen9m7c0xhjip)" height="3" style="stroke: #EEEEEE; stroke-width: 1.0;" width="753.5" x="3" y="486.1914"/><line style="stroke: #000000; stroke-width: 1.0;" x1="3" x2="756.5" y1="486.1914" y2="486.1914"/><line style="stroke: #000000; stroke-width: 1.0;" x1="3" x2="756.5" y1="489.1914" y2="489.1914"/><rect fill="#EEEEEE" filter="url(#fen9m7c0xhjip)" height="23.1328" style="stroke: #000000; stroke-width: 2.0;" width="228" x="265.75" y="475.625"/><text fill="#000000" font-family="sans-serif" font-size="13" font-weight="bold" lengthAdjust="spacingAndGlyphs" textLength="209" x="271.75" y="491.6919">Нормальная работа робота</text><polygon fill="#A80036" points="299,525.7578,309,529.7578,299,533.7578,303,529.7578" style="stroke: #A80036; stroke-width: 1.0;"/><line style="stroke: #A80036; stroke-width: 1.0;" x1="63" x2="305" y1="529.7578" y2="529.7578"/><text fill="#000000" font-family="sans-serif" font-size="13" lengthAdjust="spacingAndGlyphs" textLength="116" x="70" y="524.8247">Нажатие кнопки</text><polygon fill="#A80036" points="74,554.8906,64,558.8906,74,562.8906,70,558.8906" style="stroke: #A80036; stroke-width: 1.0;"/><line style="stroke: #A80036; stroke-width: 1.0;" x1="68" x2="310" y1="558.8906" y2="558.8906"/><text fill="#000000" font-family="sans-serif" font-size="13" lengthAdjust="spacingAndGlyphs" textLength="211" x="80" y="553.9575">Светодиод на кнопке моргает</text><polygon fill="#0000FF" points="624,584.0234,634,588.0234,624,592.0234,628,588.0234" style="stroke: #0000FF; stroke-width: 1.0;"/><line style="stroke: #0000FF; stroke-width: 1.0;" x1="321" x2="630" y1="588.0234" y2="588.0234"/><text fill="#000000" font-family="sans-serif" font-size="13" lengthAdjust="spacingAndGlyphs" textLength="151" x="328" y="583.0903">{"action": "shutdown"}</text><polygon fill="#008000" points="332,613.1563,322,617.1563,332,621.1563,328,617.1563" style="stroke: #008000; stroke-width: 1.0;"/><line style="stroke: #008000; stroke-width: 1.0;" x1="326" x2="630" y1="617.1563" y2="617.1563"/><text fill="#000000" font-family="sans-serif" font-size="13" lengthAdjust="spacingAndGlyphs" textLength="97" x="338" y="612.2231">{"timeout": N}</text><line style="stroke: #FF0000; stroke-width: 1.0;" x1="321" x2="363" y1="646.4219" y2="646.4219"/><line style="stroke: #FF0000; stroke-width: 1.0;" x1="363" x2="363" y1="646.4219" y2="659.4219"/><line style="stroke: #FF0000; stroke-width: 1.0;" x1="322" x2="363" y1="659.4219" y2="659.4219"/><polygon fill="#FF0000" points="332,655.4219,322,659.4219,332,663.4219,328,659.4219" style="stroke: #FF0000; stroke-width: 1.0;"/><text fill="#000000" font-family="sans-serif" font-size="13" lengthAdjust="spacingAndGlyphs" textLength="87" x="328" y="641.356">Выключение</text><rect fill="#EEEEEE" filter="url(#fen9m7c0xhjip)" height="3" style="stroke: #EEEEEE; stroke-width: 1.0;" width="753.5" x="3" y="687.9883"/><line style="stroke: #000000; stroke-width: 1.0;" x1="3" x2="756.5" y1="687.9883" y2="687.9883"/><line style="stroke: #000000; stroke-width: 1.0;" x1="3" x2="756.5" y1="690.9883" y2="690.9883"/><rect fill="#EEEEEE" filter="url(#fen9m7c0xhjip)" height="23.1328" style="stroke: #000000; stroke-width: 2.0;" width="495" x="132.25" y="677.4219"/><text fill="#000000" font-family="sans-serif" font-size="13" font-weight="bold" lengthAdjust="spacingAndGlyphs" textLength="476" x="138.25" y="693.4888">Модули производят процедуры по безопасному выключению</text><rect fill="#EEEEEE" filter="url(#fen9m7c0xhjip)" height="3" style="stroke: #EEEEEE; stroke-width: 1.0;" width="753.5" x="3" y="731.1211"/><line style="stroke: #000000; stroke-width: 1.0;" x1="3" x2="756.5" y1="731.1211" y2="731.1211"/><line style="stroke: #000000; stroke-width: 1.0;" x1="3" x2="756.5" y1="734.1211" y2="734.1211"/><rect fill="#EEEEEE" filter="url(#fen9m7c0xhjip)" height="23.1328" style="stroke: #000000; stroke-width: 2.0;" width="168" x="295.75" y="720.5547"/><text fill="#000000" font-family="sans-serif" font-size="13" font-weight="bold" lengthAdjust="spacingAndGlyphs" textLength="149" x="301.75" y="736.6216">Проходит N секунд</text><polygon fill="#A80036" points="74,770.6875,64,774.6875,74,778.6875,70,774.6875" style="stroke: #A80036; stroke-width: 1.0;"/><line style="stroke: #A80036; stroke-width: 1.0;" x1="68" x2="310" y1="774.6875" y2="774.6875"/><text fill="#000000" font-family="sans-serif" font-size="13" lengthAdjust="spacingAndGlyphs" textLength="224" x="80" y="769.7544">Светодиод на кнопке выключен</text><polygon fill="#FF0000" points="440.5,799.8203,450.5,803.8203,440.5,807.8203,444.5,803.8203" style="stroke: #FF0000; stroke-width: 1.0;"/><line style="stroke: #FF0000; stroke-width: 1.0;" x1="321" x2="446.5" y1="803.8203" y2="803.8203"/><text fill="#000000" font-family="sans-serif" font-size="13" lengthAdjust="spacingAndGlyphs" textLength="87" x="328" y="798.8872">Выключение</text><line style="stroke: #FF0000; stroke-width: 1.0;" x1="321" x2="363" y1="838.0859" y2="838.0859"/><line style="stroke: #FF0000; stroke-width: 1.0;" x1="363" x2="363" y1="838.0859" y2="851.0859"/><line style="stroke: #FF0000; stroke-width: 1.0;" x1="316" x2="363" y1="851.0859" y2="851.0859"/><polygon fill="#FF0000" points="326,847.0859,316,851.0859,326,855.0859,322,851.0859" style="stroke: #FF0000; stroke-width: 1.0;"/><text fill="#000000" font-family="sans-serif" font-size="13" lengthAdjust="spacingAndGlyphs" textLength="71" x="328" y="833.02">Выключен</text><!--
@startuml
skinparam fontSize 20
actor Пользователь
|||
СиловойМодуль -[#red]> СиловойМодуль : Выключен
Пользователь -> СиловойМодуль : Нажатие кнопки
activate СиловойМодуль
СиловойМодуль -[#lightgreen]> РелеПитания : Включение
activate РелеПитания
activate МодульСетевогоУправления
СиловойМодуль -> Пользователь : Светодиод на кнопке моргает
СиловойМодуль -[#lightgreen]> СиловойМодуль : Включение
== Модули производят начальную настройку ==
МодульСетевогоУправления -[#blue]> СиловойМодуль : {"action": "found_module", "meta":{...}}
activate СиловойМодуль
СиловойМодуль -[#green]> МодульСетевогоУправления : {"status": "ok"}
deactivate СиловойМодуль
СиловойМодуль -> Пользователь : Светодиод на кнопке включён
СиловойМодуль -[#lightgreen]> СиловойМодуль : Включён
== Нормальная работа робота ==
Пользователь -> СиловойМодуль : Нажатие кнопки
СиловойМодуль -> Пользователь : Светодиод на кнопке моргает
СиловойМодуль -[#blue]> МодульСетевогоУправления : {"action": "shutdown"}
activate МодульСетевогоУправления
МодульСетевогоУправления -[#green]> СиловойМодуль : {"timeout": N}
deactivate МодульСетевогоУправления
СиловойМодуль -[#red]> СиловойМодуль : Выключение
== Модули производят процедуры по безопасному выключению ==
== Проходит N секунд ==
СиловойМодуль -> Пользователь : Светодиод на кнопке выключен
СиловойМодуль -[#red]> РелеПитания : Выключение
deactivate РелеПитания
deactivate МодульСетевогоУправления
СиловойМодуль -[#red]> СиловойМодуль : Выключен
deactivate СиловойМодуль
|||
@enduml

PlantUML version 1.2017.12(Wed Apr 26 18:06:36 EET 2017)
(GPL source distribution)
Java Runtime: OpenJDK Runtime Environment
JVM: OpenJDK 64-Bit Server VM
Java Version: 1.8.0_121-b13
Operating System: Linux
OS Version: 4.10.13-1-ARCH
Default Encoding: UTF-8
Language: ru
Country: RU
--></g></svg>